<svg width="40" height="39" viewBox="0 0 40 39" fill="none" xmlns="http://www.w3.org/2000/svg">
<path d="M37.0472 -1H2.95278C2.16965 -1 1.4186 -0.688904 0.864849 -0.135151C0.311096 0.418602 0 1.16965 0 1.95278V36.0472C0 36.8303 0.311096 37.5814 0.864849 38.1352C1.4186 38.6889 2.16965 39 2.95278 39H37.0472C37.8303 39 38.5814 38.6889 39.1352 38.1352C39.6889 37.5814 40 36.8303 40 36.0472V1.95278C40 1.16965 39.6889 0.418602 39.1352 -0.135151C38.5814 -0.688904 37.8303 -1 37.0472 -1ZM11.9222 33.075H5.90833V13.9722H11.9222V33.075ZM8.91111 11.325C8.22894 11.3212 7.56319 11.1153 6.99789 10.7335C6.43259 10.3516 5.99307 9.81088 5.7348 9.17948C5.47652 8.54808 5.41108 7.85432 5.54672 7.18576C5.68236 6.5172 6.013 5.90379 6.49693 5.42297C6.98085 4.94214 7.59636 4.61544 8.26578 4.4841C8.9352 4.35276 9.62852 4.42266 10.2583 4.68498C10.888 4.9473 11.4259 5.39028 11.8041 5.95802C12.1823 6.52576 12.3839 7.19282 12.3833 7.875C12.3898 8.33172 12.3042 8.78506 12.1317 9.20801C11.9592 9.63095 11.7033 10.0148 11.3793 10.3368C11.0553 10.6587 10.6697 10.9121 10.2457 11.0819C9.82167 11.2517 9.36778 11.3344 8.91111 11.325ZM34.0889 33.0917H28.0778V22.6556C28.0778 19.5778 26.7694 18.6278 25.0806 18.6278C23.2972 18.6278 21.5472 19.9722 21.5472 22.7333V33.0917H15.5333V13.9861H21.3167V16.6333H21.3944C21.975 15.4583 24.0083 13.45 27.1111 13.45C30.4667 13.45 34.0917 15.4417 34.0917 21.275L34.0889 33.0917Z" fill="white"/>
</svg>
