<?xml version="1.0" encoding="utf-8"?>
<!-- Generator: Adobe Illustrator 26.0.1, SVG Export Plug-In . SVG Version: 6.00 Build 0)  -->
<svg version="1.1" id="Camada_1" xmlns:serif="http://www.serif.com/"
	 xmlns="http://www.w3.org/2000/svg" xmlns:xlink="http://www.w3.org/1999/xlink" x="0px" y="0px" viewBox="0 0 32 32"
	 style="enable-background:new 0 0 32 32;" xml:space="preserve">
<style type="text/css">
	.st0{fill:url(#SVGID_1_);}
	.st1{fill:#FFFFFF;}
	.st2{fill-rule:evenodd;clip-rule:evenodd;fill:#FFFFFF;}
</style>
<linearGradient id="SVGID_1_" gradientUnits="userSpaceOnUse" x1="16.3999" y1="1.871" x2="16.3999" y2="31.7093">
	<stop  offset="0.2402" style="stop-color:#E3E3E3"/>
	<stop  offset="1" style="stop-color:#AACCFF"/>
	<stop  offset="1" style="stop-color:#000000"/>
</linearGradient>
<circle class="st0" cx="16.4" cy="16.8" r="14.9"/>
<path class="st1" d="M7.7,21.4l4.1,4.1c0.7,0,1.4,0,2.1,0c1.5,0,3.1,0.1,4.9,0c2-0.1,2.5-0.4,3.9-1.2c0.3-0.1,0.5-0.3,0.9-0.5
	l2.2-1.2l0,0c1-0.5,1.6-1,1.8-1.4c0.1-0.1,0.1-0.2,0.1-0.3c0-0.1-0.1-0.1-0.1-0.2c-0.1-0.1-0.4-0.2-0.6-0.2l-5,2c0,0-0.1,0-0.1,0
	c-0.2,0.1-0.5,0.1-0.8,0.1l-5.5,0.3c-0.3,0-0.6-0.2-0.6-0.5c0-0.3,0.2-0.6,0.5-0.6l5.5-0.3c0,0,0,0,0.1,0c0.5,0,0.9-0.2,1-0.4
	c0-0.1,0.1-0.2,0.1-0.2c0-0.1,0-0.1-0.1-0.2c-0.2-0.3-0.7-0.4-1.6-0.3c0,0-0.1,0-0.1,0l-1.9-0.1h0c-2.1-0.1-2.8-0.3-4.1-0.7
	c-0.3-0.1-0.6-0.2-0.9-0.3c-0.1,0-0.3-0.1-0.5-0.1c-0.2,0-0.3,0-0.5-0.1c-0.8-0.1-1.4,0-1.9,0.2c-0.5,0.2-1,0.6-1.6,1.1
	c-0.3,0.2-0.5,0.4-0.8,0.6C7.9,21.2,7.8,21.3,7.7,21.4z M12.6,26.6c0,0.1-0.1,0.3-0.2,0.3l-2.3,2.3c-0.2,0.2-0.6,0.2-0.8,0L4.2,24
	c-0.2-0.2-0.2-0.6,0-0.8c1-1,2-2.1,3.1-3c0.3-0.2,0.5-0.5,0.8-0.7c0.7-0.6,1.3-1,1.9-1.3c0.7-0.3,1.4-0.4,2.4-0.3
	c0.2,0,0.4,0,0.6,0.1c0.2,0,0.4,0.1,0.6,0.1c0.3,0.1,0.7,0.2,1,0.3c1.2,0.4,1.9,0.6,3.8,0.6c0,0,0,0,0,0l1.9,0.1
	c1.3-0.1,2.1,0.3,2.5,0.7l0,0c0.2,0.2,0.3,0.5,0.3,0.8l3.4-1.4l0,0c0,0,0.1,0,0.2,0c0.6-0.1,1.1,0.1,1.5,0.4
	c0.2,0.2,0.4,0.5,0.5,0.8c0.1,0.3,0,0.6-0.1,1c-0.3,0.6-1,1.3-2.3,1.9l-2.2,1.2c-0.3,0.2-0.6,0.4-0.9,0.5c-1.5,0.9-2.1,1.2-4.4,1.4
	c-1.8,0.1-3.4,0.1-5,0C13.4,26.6,13,26.6,12.6,26.6z M6.9,22.1l-1.5,1.5l4.4,4.4l1.5-1.5C9.8,25.1,8.4,23.6,6.9,22.1z"/>
<path class="st2" d="M21.9,3.8c0.1-0.2,0-0.5-0.2-0.6c-0.2-0.1-0.5-0.1-0.6,0.1c-1.5,1.8-3.1,3.6-4.2,5.4c-1.2,1.9-2,3.7-2,5.7
	c0,2.3,1.8,4.1,4.1,4.1s4.1-1.8,4.1-4.1c0-1.6-0.5-2.8-1-4C21.4,8.7,20.8,6.9,21.9,3.8z M20.4,5.7c-1,1.2-1.9,2.4-2.7,3.6
	c-1.1,1.7-1.8,3.4-1.8,5.2c0,1.7,1.4,3.1,3.1,3.1c1.7,0,3.1-1.4,3.1-3.1c0-1.4-0.5-2.5-0.9-3.7C20.6,9.3,20.1,7.8,20.4,5.7z"/>
<path class="st2" d="M16.4,13.7c0,0,0,0.9,0.3,1.7c0.4,0.9,1.1,1.8,2.5,1.6c0.3,0,0.5-0.3,0.4-0.5c0-0.3-0.3-0.5-0.5-0.4
	c-0.8,0.1-1.2-0.5-1.4-1c-0.3-0.7-0.3-1.3-0.3-1.3c0-0.3-0.2-0.5-0.5-0.5C16.6,13.2,16.4,13.4,16.4,13.7z"/>
</svg>
